<svg xmlns="http://www.w3.org/2000/svg" viewBox="0 0 32 32" width="22" height="22" style="border-color: rgba(0,0,0,0);border-width: apx;border-style: undefined" filter="none">
    <path d="M26.667 26.667c0 0.736-0.597 1.333-1.333 1.333v0h-18.667c-0.736 0-1.333-0.597-1.333-1.333v0-12h-4l13.769-12.517c0.236-0.215 0.551-0.347 0.897-0.347s0.661 0.132 0.898 0.348l-0.001-0.001 13.769 12.517h-4v12zM10 17.333c0 3.314 2.686 6 6 6s6-2.686 6-6v0h-2.667c0 1.841-1.492 3.333-3.333 3.333s-3.333-1.492-3.333-3.333v0h-2.667z"></path>
  </svg>